<svg xmlns="http://www.w3.org/2000/svg" width="234" height="30" viewBox="0 0 234 30">
  <g fill="none" fill-rule="evenodd">
    <circle cx="15" cy="15" r="15" fill="red"/>
    <path fill="#FFF" fill-rule="nonzero" d="M10.2196319,20 L7.82453988,13.2235294 C7.72638037,12.9588235 7.56932515,12.9058824 7.27484663,12.9058824 L7,12.9058824 L7,11 L8.70797546,11 C9.53251534,11 9.92515337,11.2294118 10.1214724,11.9176471 L11.593865,16.9117647 L11.6517867,17.1299392 C11.7480161,17.5235642 11.790184,17.8647059 11.790184,17.8647059 L11.8294479,17.8647059 L11.8642974,17.6803636 C11.892177,17.5437334 11.9367844,17.3446438 11.9981196,17.1299392 L13.9104294,11.0352941 L16.1092025,11.0352941 L17.9742331,16.9117647 C18.1312883,17.3882353 18.190184,17.8647059 18.190184,17.8647059 L18.2294479,17.8647059 L18.256702,17.6803636 C18.2826604,17.5209617 18.3278844,17.2765456 18.3954388,17.0215026 L19.8785276,11.9176471 C20.0748466,11.2294118 20.4674847,11 21.2920245,11 L23,11 L23,12.9058824 L22.7251534,12.9058824 C22.4306748,12.9058824 22.2932515,12.9588235 22.1754601,13.2235294 L19.7803681,20 L16.9730061,20 L15.2650307,14.8647059 C15.1079755,14.3882353 15.0294479,13.8941176 15.0294479,13.8941176 L14.990184,13.8941176 L14.9214724,14.2007353 C14.8773006,14.3838235 14.8134969,14.6264706 14.7349693,14.8647059 L13.0466258,20 L10.2196319,20 Z"/>
    <path fill="#000" fill-rule="nonzero" d="M42.269375,22.568125 L45.546875,22.568125 L47.9834375,13.9 C48.26375,12.908125 48.393125,12.0025 48.393125,12.0025 L48.43625,12.0025 L48.4845978,12.3101244 C48.5383175,12.6303361 48.6368036,13.1634078 48.7800562,13.729396 L51.153125,22.568125 L54.4090625,22.568125 L57.6003125,10.1265625 C57.6865625,9.76 57.9021875,9.6521875 58.2903125,9.6521875 L58.7,9.6521875 L58.7,7.25875 L56.845625,7.25875 C55.7675,7.25875 55.1853125,7.5175 54.9696875,8.509375 L52.8565625,17.6303125 C52.6625,18.4928125 52.5978125,19.2475 52.5978125,19.2475 L52.5546875,19.2475 L52.5324459,19.0504842 C52.500597,18.7996412 52.4303188,18.333489 52.29529,17.7941633 L49.6221875,7.301875 L47.22875,7.301875 L44.4471875,17.6303125 C44.21,18.514375 44.12375,19.2475 44.12375,19.2475 L44.080625,19.2475 L44.0499237,18.9632288 C44.013916,18.6663232 43.9431641,18.169375 43.821875,17.6303125 L41.7303125,8.509375 C41.493125,7.5175 40.9109375,7.25875 39.8328125,7.25875 L38,7.25875 L38,9.6521875 L38.4096875,9.6521875 C38.77625,9.6521875 39.0134375,9.76 39.0996875,10.1265625 L42.269375,22.568125 Z M58.6751202,17.0696875 C58.6751202,20.19625 60.9391827,22.826875 64.5832452,22.826875 C67.3216827,22.826875 69.0035577,21.1665625 69.0035577,21.1665625 L67.8607452,19.2690625 L67.7098077,19.396885 C67.3165077,19.711525 66.1918077,20.498125 64.7773077,20.498125 C63.1169952,20.498125 61.6938702,19.4846875 61.4782452,17.5440625 L69.0682452,17.5440625 L69.1086,17.0494103 C69.1217022,16.8637956 69.1329327,16.6653906 69.1329327,16.530625 C69.1329327,13.6196875 67.4079327,11.3125 64.2598077,11.3125 C60.9607452,11.3125 58.6751202,13.684375 58.6751202,17.0696875 Z M61.5644952,15.6465625 C61.8663702,14.2665625 62.8582452,13.425625 64.2598077,13.425625 C65.3810577,13.425625 66.2866827,14.33125 66.3298077,15.6465625 L61.5644952,15.6465625 Z M71.7818029,22.568125 L74.3693029,22.568125 L74.3693029,22.0075 C74.3693029,21.57625 74.3261779,21.274375 74.3261779,21.274375 L74.3693029,21.274375 L74.4659078,21.4052116 C74.7647987,21.7793335 75.7693252,22.826875 77.6468029,22.826875 C80.5577404,22.826875 82.6924279,20.5628125 82.6924279,17.0696875 C82.6924279,13.6628125 80.7949279,11.3125 77.8193029,11.3125 C75.4905529,11.3125 74.5202404,12.8434375 74.5202404,12.8434375 L74.4771154,12.8434375 L74.4933372,12.6584467 C74.5038189,12.5173172 74.5160976,12.3038634 74.5193919,12.0477338 L74.5202404,8.725 C74.5202404,7.7115625 74.0674279,7.25875 73.0539904,7.25875 L70.4449279,7.25875 L70.4449279,9.5875 L71.3074279,9.5875 C71.6093029,9.5875 71.7818029,9.7384375 71.7818029,10.061875 L71.7818029,22.568125 Z M74.4339904,17.134375 C74.4339904,14.6978125 75.7708654,13.6628125 77.1939904,13.6628125 C78.8111779,13.6628125 79.9324279,15.02125 79.9324279,17.1128125 C79.9324279,19.290625 78.6602404,20.5196875 77.1724279,20.5196875 C75.3396154,20.5196875 74.4339904,18.8378125 74.4339904,17.134375 Z M91.4186058,21.101875 C91.4186058,22.136875 91.8498558,22.568125 92.8848558,22.568125 L96.2486058,22.568125 C100.970793,22.568125 104.054231,19.721875 104.054231,14.891875 C104.054231,10.061875 100.970793,7.25875 96.2486058,7.25875 L90.0170433,7.25875 L90.0170433,9.6521875 L91.4186058,9.6521875 L91.4186058,21.101875 Z M94.2432933,19.7003125 L94.2432933,9.6521875 L96.0976683,9.6521875 C99.1164183,9.6521875 101.121731,11.485 101.121731,14.891875 C101.121731,18.341875 99.1595433,20.1746875 96.0976683,20.1746875 L94.7176683,20.1746875 C94.4157933,20.1746875 94.2432933,20.0021875 94.2432933,19.7003125 Z M105.581851,17.0696875 C105.581851,20.19625 107.845913,22.826875 111.489976,22.826875 C114.228413,22.826875 115.910288,21.1665625 115.910288,21.1665625 L114.767476,19.2690625 L114.616538,19.396885 C114.223238,19.711525 113.098538,20.498125 111.684038,20.498125 C110.023726,20.498125 108.600601,19.4846875 108.384976,17.5440625 L115.974976,17.5440625 L116.015331,17.0494103 C116.028433,16.8637956 116.039663,16.6653906 116.039663,16.530625 C116.039663,13.6196875 114.314663,11.3125 111.166538,11.3125 C107.867476,11.3125 105.581851,13.684375 105.581851,17.0696875 Z M108.471226,15.6465625 C108.773101,14.2665625 109.764976,13.425625 111.166538,13.425625 C112.287788,13.425625 113.193413,14.33125 113.236538,15.6465625 L108.471226,15.6465625 Z M118.817909,19.075 L117.524159,20.8646875 L117.64496,21.0013576 C118.063109,21.4466057 119.563554,22.826875 122.095409,22.826875 C124.488846,22.826875 126.321659,21.533125 126.321659,19.463125 C126.321659,15.7975 120.478221,16.1425 120.478221,14.4175 C120.478221,13.770625 121.146659,13.425625 122.116971,13.425625 C122.720721,13.425625 123.496971,13.684375 123.496971,14.201875 L123.496971,14.7409375 L125.911971,14.7409375 L125.911971,13.598125 C125.911971,11.8084375 123.540096,11.3125 122.052284,11.3125 C119.766659,11.3125 117.782909,12.3259375 117.782909,14.5253125 C117.782909,18.083125 123.583221,18.0615625 123.583221,19.6140625 C123.583221,20.3471875 122.936346,20.6921875 122.095409,20.6921875 C120.219471,20.6921875 118.817909,19.075 118.817909,19.075 Z M129.164591,9.7815625 L131.536466,9.7815625 L131.536466,7.25875 L129.164591,7.25875 L129.164591,9.7815625 Z M129.035216,21.101875 C129.035216,22.136875 129.466466,22.568125 130.479904,22.568125 L133.088966,22.568125 L133.088966,20.2609375 L132.226466,20.2609375 C131.924591,20.2609375 131.752091,20.0884375 131.752091,19.7865625 L131.752091,13.0375 C131.752091,12.0240625 131.320841,11.57125 130.307404,11.57125 L127.698341,11.57125 L127.698341,13.9 L128.560841,13.9 C128.862716,13.9 129.035216,14.0509375 129.035216,14.374375 L129.035216,21.101875 Z M134.379399,16.789375 C134.379399,19.808125 136.169087,22.3525 139.317212,22.3525 C140.783462,22.3525 141.732212,21.8565625 142.379087,20.929375 L142.422212,20.929375 L142.40337,21.3337384 C142.401714,21.3933681 142.400649,21.4540625 142.400649,21.5115625 L142.400649,22.0290625 C142.400649,24.0128125 140.955962,24.724375 139.295649,24.724375 C137.613774,24.724375 136.255337,23.99125 136.255337,23.99125 L135.414399,26.1475 C136.470962,26.708125 137.937212,27.09625 139.317212,27.09625 C142.185024,27.09625 145.117524,25.673125 145.117524,21.8996875 L145.117524,14.33125 C145.117524,14.0509375 145.311587,13.9 145.591899,13.9 L146.432837,13.9 L146.432837,11.57125 L143.888462,11.57125 C143.025962,11.57125 142.680962,12.08875 142.680962,12.5846875 L142.680962,12.865 L142.637837,12.865 L142.590942,12.78956 C142.383303,12.4786 141.457649,11.3125 139.252524,11.3125 C136.082837,11.3125 134.379399,13.770625 134.379399,16.789375 Z M139.899399,20.0453125 C138.131274,20.0453125 137.160962,18.6221875 137.160962,16.703125 C137.160962,14.84875 138.066587,13.64125 139.726899,13.64125 C141.214712,13.64125 142.465337,14.3096875 142.465337,16.8109375 C142.465337,19.290625 141.214712,20.0453125 139.899399,20.0453125 Z M148.758269,22.568125 L151.475144,22.568125 L151.475144,17.5225 C151.475144,17.005 151.539832,16.5090625 151.690769,16.05625 C152.078894,14.7409375 153.178582,13.81375 154.644832,13.81375 C156.024832,13.81375 156.369832,14.719375 156.369832,16.05625 L156.369832,21.101875 C156.369832,22.136875 156.801082,22.568125 157.836082,22.568125 L160.445144,22.568125 L160.445144,20.2609375 L159.582644,20.2609375 C159.280769,20.2609375 159.108269,20.0884375 159.108269,19.7865625 L159.108269,15.495625 C159.108269,12.5846875 157.706707,11.3125 155.270144,11.3125 C153.049207,11.3125 151.863269,12.6709375 151.388894,13.598125 L151.345769,13.598125 L151.367332,13.4498828 C151.378113,13.3609375 151.388894,13.2423437 151.388894,13.12375 L151.388894,12.8003125 C151.388894,12.0240625 150.914519,11.57125 149.944207,11.57125 L147.421394,11.57125 L147.421394,13.9 L148.283894,13.9 C148.585769,13.9 148.758269,14.0509375 148.758269,14.374375 L148.758269,22.568125 Z M168.998822,18.47125 L167.403197,20.455 L167.52374,20.5937979 C167.987586,21.1013154 169.776975,22.826875 172.664447,22.826875 C175.87726,22.826875 177.753197,20.756875 177.753197,18.3203125 C177.753197,13.29625 170.551322,13.81375 170.551322,11.2046875 C170.551322,10.234375 171.500072,9.5659375 172.793822,9.5659375 C173.80726,9.5659375 174.820697,10.0403125 174.820697,10.751875 L174.820697,11.441875 L177.365072,11.441875 L177.365072,10.01875 C177.365072,7.8409375 174.605072,7 172.815385,7 C169.861322,7 167.705072,8.8328125 167.705072,11.3125 C167.705072,16.0778125 174.906947,15.8621875 174.906947,18.47125 C174.906947,19.6571875 173.871947,20.2825 172.707572,20.2825 C170.572885,20.2825 168.998822,18.47125 168.998822,18.47125 Z M180.466755,18.5359375 C180.466755,22.223125 183.507067,22.6759375 185.038005,22.6759375 C185.533942,22.6759375 185.878942,22.61125 185.878942,22.61125 L185.878942,20.2178125 L185.744177,20.239375 C185.657927,20.2501562 185.533942,20.2609375 185.383005,20.2609375 L185.211817,20.2565056 C184.432275,20.2160523 183.205192,19.8728125 183.205192,18.1909375 L183.205192,13.7490625 L185.706442,13.7490625 L185.706442,11.57125 L183.205192,11.57125 L183.205192,8.5740625 L180.531442,8.5740625 L180.531442,11.57125 L179.04363,11.57125 L179.04363,13.7490625 L180.466755,13.7490625 L180.466755,18.5359375 Z M188.441563,18.64375 C188.441563,21.6409375 189.88625,22.826875 192.236562,22.826875 C194.134062,22.826875 195.514062,21.6840625 196.031563,20.54125 L196.074687,20.54125 L196.056494,20.8505371 C196.055483,20.8798486 196.054641,20.9103394 196.054052,20.9415881 L196.053125,21.3390625 C196.053125,22.1153125 196.549062,22.568125 197.497812,22.568125 L200.020625,22.568125 L200.020625,20.2609375 L199.158125,20.2609375 C198.85625,20.2609375 198.68375,20.0884375 198.68375,19.7865625 L198.68375,11.57125 L195.945312,11.57125 L195.945312,16.616875 C195.945312,18.5790625 194.845625,20.325625 192.861875,20.325625 C191.557775,20.325625 191.187659,19.491001 191.160136,18.2414496 L191.158437,13.0159375 C191.158437,12.0240625 190.727187,11.57125 189.71375,11.57125 L187.104688,11.57125 L187.104688,13.9 L187.967187,13.9 C188.269062,13.9 188.441563,14.0509375 188.441563,14.374375 L188.441563,18.64375 Z M201.224808,17.0696875 C201.224808,20.4765625 203.14387,22.826875 206.119495,22.826875 C208.642308,22.826875 209.547933,21.0371875 209.547933,21.0371875 L209.591058,21.0371875 L209.591058,21.446875 C209.591058,22.09375 209.95762,22.568125 210.949495,22.568125 L213.472308,22.568125 L213.472308,20.2609375 L212.63137,20.2609375 C212.329495,20.2609375 212.156995,20.0884375 212.156995,19.7865625 L212.156995,8.725 C212.156995,7.7115625 211.704183,7.25875 210.690745,7.25875 L208.081683,7.25875 L208.081683,9.5875 L208.944183,9.5875 C209.246058,9.5875 209.418558,9.7384375 209.418558,10.061875 L209.418558,12.0025 C209.418558,12.3690625 209.44012,12.649375 209.44012,12.649375 L209.396995,12.649375 L209.32346,12.5438568 C209.081249,12.2281243 208.208084,11.3125 206.227308,11.3125 C203.31637,11.3125 201.224808,13.5765625 201.224808,17.0696875 Z M206.723245,20.5196875 C205.106058,20.5196875 204.00637,19.16125 204.00637,17.0696875 C204.00637,14.891875 205.256995,13.6628125 206.76637,13.6628125 C208.599183,13.6628125 209.483245,15.3446875 209.483245,17.048125 C209.483245,19.4846875 208.14637,20.5196875 206.723245,20.5196875 Z M216.034928,9.7815625 L218.406803,9.7815625 L218.406803,7.25875 L216.034928,7.25875 L216.034928,9.7815625 Z M215.905553,21.101875 C215.905553,22.136875 216.336803,22.568125 217.35024,22.568125 L219.959303,22.568125 L219.959303,20.2609375 L219.096803,20.2609375 C218.794928,20.2609375 218.622428,20.0884375 218.622428,19.7865625 L218.622428,13.0375 C218.622428,12.0240625 218.191178,11.57125 217.17774,11.57125 L214.568678,11.57125 L214.568678,13.9 L215.431178,13.9 C215.733053,13.9 215.905553,14.0509375 215.905553,14.374375 L215.905553,21.101875 Z M221.249736,17.0696875 C221.249736,20.455 223.923486,22.826875 227.265673,22.826875 C230.629423,22.826875 233.303173,20.455 233.303173,17.0696875 C233.303173,13.7059375 230.629423,11.3125 227.265673,11.3125 C223.923486,11.3125 221.249736,13.7059375 221.249736,17.0696875 Z M224.009736,17.0696875 C224.009736,15.0428125 225.497548,13.64125 227.265673,13.64125 C229.055361,13.64125 230.543173,15.0428125 230.543173,17.0696875 C230.543173,19.118125 229.055361,20.498125 227.265673,20.498125 C225.497548,20.498125 224.009736,19.118125 224.009736,17.0696875 Z"/>
  </g>
</svg>
